<mxfile host="app.diagrams.net" modified="2024-06-23T15:33:38.858Z" agent="Mozilla/5.0 (Windows NT 10.0; Win64; x64) AppleWebKit/537.36 (KHTML, like Gecko) Chrome/126.0.0.0 Safari/537.36" version="24.6.2" etag="acoO8fa2weiCAuY2f62X" type="github">
  <diagram name="Page-1" id="IsG6eMS3085EdhqULOXH">
    <mxGraphModel>
      <root>
        <mxCell id="0" />
        <mxCell id="1" parent="0" />
      </root>
    </mxGraphModel>
  </diagram>
</mxfile>
